<?xml version="1.0" encoding="UTF-8" standalone="no"?>
<svg width="12px" height="6px" viewBox="0 0 12 6" version="1.1" xmlns="http://www.w3.org/2000/svg" xmlns:xlink="http://www.w3.org/1999/xlink">
    <!-- Generator: sketchtool 3.6.1 (26313) - http://www.bohemiancoding.com/sketch -->
    <title>75BA2705-9B64-4CBE-912F-80A5D5CF0998</title>
    <desc>Created with sketchtool.</desc>
    <defs></defs>
    <g id="Welcome" stroke="none" stroke-width="1" fill="none" fill-rule="evenodd">
        <g id="lisser_landing" transform="translate(-512.000000, -606.000000)" fill="#969695">
            <g id="D18_SECTION-1">
                <g id="SPA-LASER-TREATMENTS-+-bookform-+-We-bring-services-th" transform="translate(258.000000, 336.000000)">
                    <g id="bookform" transform="translate(0.000000, 234.000000)">
                        <g id="Rectangle-120-+-YOUR-ZIP-CODE-+-02108">
                            <path d="M266,36.3 C266,36.12 265.88,36 265.7,36 C265.61,36 265.55,36.03 265.49,36.09 L265.49,36.09 L260,41.28 L254.51,36.09 L254.51,36.09 C254.45,36.03 254.39,36 254.3,36 C254.12,36 254,36.12 254,36.3 C254,36.39 254.03,36.45 254.09,36.51 L254.09,36.51 L259.79,41.91 L259.79,41.91 C259.85,41.97 259.91,42 260,42 C260.09,42 260.15,41.97 260.21,41.91 L260.21,41.91 L265.91,36.51 L265.91,36.51 C265.97,36.45 266,36.39 266,36.3 L266,36.3 Z" id="arrow_down"></path>
                        </g>
                    </g>
                </g>
            </g>
        </g>
    </g>
</svg>