<?xml version="1.0" encoding="UTF-8" standalone="no"?>
<svg width="40px" height="40px" viewBox="0 0 40 40" version="1.1" xmlns="http://www.w3.org/2000/svg" xmlns:xlink="http://www.w3.org/1999/xlink">
    <!-- Generator: sketchtool 3.6.1 (26313) - http://www.bohemiancoding.com/sketch -->
    <title>B691FE02-BF12-4BDE-A5B1-0B2D78AF2F8A</title>
    <desc>Created with sketchtool.</desc>
    <defs></defs>
    <g id="Welcome" stroke="none" stroke-width="1" fill="none" fill-rule="evenodd">
        <g id="lisser_landing" transform="translate(-50.000000, -1688.000000)" fill="#FFFFFF">
            <g id="2" transform="translate(0.000000, 1500.000000)">
                <g id="items">
                    <g id="Feature-1">
                        <g id="item1" transform="translate(30.000000, 167.000000)">
                            <g id="Oval-6-Copy-+-pill">
                                <path d="M56.4873486,40.5372025 L40.4539457,24.5037996 C35.7816284,19.8321503 28.1792067,19.8321503 23.5068058,24.5037996 C18.8348225,29.1762004 18.8348225,36.7786221 23.5068058,41.4509395 L39.5402088,57.4843424 C41.8037578,59.7476409 44.8131106,60.9939875 48.0137787,60.9939875 C51.2144468,60.9939875 54.2237161,59.7475574 56.4874322,57.4842589 C61.1593319,52.8119415 61.1593319,45.2095198 56.4873486,40.5372025 L56.4873486,40.5372025 Z M55.6016701,56.5985804 C53.5746973,58.6253027 50.8799165,59.7414614 48.0137787,59.7414614 C45.1476409,59.7414614 42.4528601,58.6253027 40.4258873,56.5986639 L32.8520251,49.0248017 L42.6841754,39.1926514 C42.9287683,38.9480585 42.9287683,38.5514823 42.6841754,38.3069729 C42.4395825,38.06238 42.0430063,38.06238 41.7984969,38.3069729 L31.9663466,48.1391232 L24.3924843,40.565261 C20.2087683,36.3812944 20.2087683,29.5735282 24.3924008,25.3895616 C26.4846764,23.29762 29.2320668,22.2520251 31.9802923,22.2520251 C34.7279332,22.2520251 37.4764092,23.2981211 39.5681837,25.3894781 L47.1420459,32.9633403 L45.9946555,34.1107307 C45.7500626,34.3553236 45.7500626,34.7518998 45.9946555,34.9964092 C46.1169102,35.1186639 46.2772443,35.1798747 46.4374948,35.1798747 C46.5977453,35.1798747 46.7580793,35.1187474 46.880334,34.9964092 L48.0277244,33.8490188 L55.6015031,41.422881 C59.7852192,45.6068476 59.7852192,52.4146973 55.6016701,56.5985804 Z M44.2305637,35.8748225 L43.5625052,36.542881 C43.3179123,36.7874739 43.3179123,37.1840501 43.5625052,37.4285595 C43.6847599,37.5508142 43.8450939,37.6120251 44.0053445,37.6120251 C44.165595,37.6120251 44.325929,37.5508977 44.4481837,37.4285595 L45.1162422,36.760501 C45.3608351,36.5159081 45.3608351,36.1193319 45.1162422,35.8748225 C44.8717328,35.6302296 44.4751566,35.6302296 44.2305637,35.8748225 Z M31.9802923,23.6663048 C31.2543633,23.6663048 30.5317745,23.7496451 29.8326514,23.9139875 C29.4959499,23.9931524 29.2870981,24.3302714 29.3663466,24.6669729 C29.4341545,24.9554906 29.6914405,25.1500626 29.9754489,25.1500626 C30.022881,25.1500626 30.0711482,25.1446347 30.1193319,25.1332777 C30.7246764,24.9909812 31.3508142,24.9188309 31.9802923,24.9188309 C32.3261795,24.9188309 32.6065971,24.6384134 32.6065971,24.2925261 C32.6065971,23.9466388 32.326263,23.6663048 31.9802923,23.6663048 Z M38.5643424,26.3933194 C37.697286,25.5263466 36.6914405,24.8500209 35.5747808,24.3829645 C35.2556994,24.2495198 34.8888518,24.4 34.7553236,24.7191649 C34.6218789,25.0382463 34.7723591,25.4050939 35.091524,25.5386221 C36.0570355,25.94238 36.9275157,26.5280167 37.6787474,27.2790814 L40.8896033,30.4899374 C41.011858,30.6121921 41.1721921,30.6734029 41.3324426,30.6734029 C41.4926931,30.6734029 41.6530271,30.6122756 41.7752818,30.4899374 C42.0198747,30.2453445 42.0198747,29.8487683 41.7752818,29.6042589 L38.5643424,26.3933194 Z" id="icon_pill"></path>
                            </g>
                        </g>
                    </g>
                </g>
            </g>
        </g>
    </g>
</svg>