<?xml version="1.0" encoding="UTF-8" standalone="no"?>
<svg width="36px" height="44px" viewBox="0 0 36 44" version="1.1" xmlns="http://www.w3.org/2000/svg" xmlns:xlink="http://www.w3.org/1999/xlink">
    <!-- Generator: sketchtool 3.6.1 (26313) - http://www.bohemiancoding.com/sketch -->
    <title>F3003F9F-3709-4364-98BE-65AD25CDB027</title>
    <desc>Created with sketchtool.</desc>
    <defs></defs>
    <g id="Welcome" stroke="none" stroke-width="1" fill="none" fill-rule="evenodd">
        <g id="lisser_landing" transform="translate(-1012.000000, -1685.000000)" fill="#FFFFFF">
            <g id="2" transform="translate(0.000000, 1500.000000)">
                <g id="items">
                    <g id="Feature-2" transform="translate(961.000000, 0.000000)">
                        <g id="item1" transform="translate(29.000000, 167.000000)">
                            <g id="Oval-6-Copy-+-pin">
                                <g id="pin" transform="translate(22.666667, 18.666667)">
                                    <g id="Capa_1">
                                        <g id="Group">
                                            <path d="M17.3333333,0 C7.77569157,0 0,7.77218004 0,17.3255055 C0,20.933803 0.90166747,24.5122087 2.6800257,27.961362 C4.09459277,30.7048037 6.06365944,33.3716791 8.53267791,35.8879269 C12.7241703,40.1596034 16.8538474,42.4899048 17.0275984,42.5870111 C17.1225767,42.6401148 17.2279133,42.6666667 17.3333333,42.6666667 C17.4388369,42.6666667 17.5443406,42.6400313 17.6394859,42.5868441 C17.8132369,42.4895708 21.942747,40.1559295 26.1341558,35.8826667 C28.6030908,33.3655003 30.5721574,30.6984579 31.986641,27.9556008 C33.7649992,24.507032 34.6666667,20.9306301 34.6666667,17.3255055 C34.6666667,7.77218004 26.8909751,0 17.3333333,0 L17.3333333,0 Z M30.8816514,27.3646132 C29.5285655,29.9931637 27.638188,32.5559191 25.2630618,34.9816569 C21.8352386,38.4824945 18.363894,40.6921435 17.3331663,41.3137743 C16.3021044,40.692728 12.8310104,38.4858343 9.40352129,34.9867502 C7.02839518,32.5620144 5.13801767,29.9995095 3.78501526,27.3704579 C2.10489317,24.1059152 1.25301205,20.7262309 1.25301205,17.3255055 C1.25301205,8.46277886 8.46660241,1.25244618 17.3333333,1.25244618 C26.2000643,1.25244618 33.4136546,8.46277886 33.4136546,17.3255055 C33.4136546,20.7230581 32.5617735,24.1007384 30.8816514,27.3646132 Z M27.3236819,9.46673973 C27.0417542,9.66721461 26.9757622,10.0581448 27.1763277,10.3400287 C28.6336643,12.3877782 29.4040161,14.8033294 29.4040161,17.3255055 C29.4040161,23.9782492 23.9891663,29.3907371 17.3333333,29.3907371 C10.6775004,29.3907371 5.2626506,23.9782492 5.2626506,17.3255055 C5.2626506,10.6727619 10.6775004,5.26027397 17.3333333,5.26027397 C19.1086843,5.26027397 20.8185446,5.63642531 22.4152161,6.37837443 C22.7290538,6.52407567 23.1015325,6.38806001 23.2474667,6.07444749 C23.3933173,5.76083496 23.2571566,5.38835747 22.9434024,5.24265623 C21.1799968,4.42330594 19.292543,4.00782779 17.3333333,4.00782779 C9.98658956,4.00782779 4.00963855,9.98207958 4.00963855,17.3255055 C4.00963855,24.6689315 9.98658956,30.6431833 17.3333333,30.6431833 C24.6800771,30.6431833 30.6570281,24.6689315 30.6570281,17.3255055 C30.6570281,14.5415682 29.8064835,11.8750267 28.1973655,9.6140274 C27.9968,9.33214351 27.6056096,9.26618134 27.3236819,9.46673973 Z M24.4696546,7.59366471 C24.8604273,7.88047489 25.2379181,8.19408741 25.5916851,8.52590215 C25.712559,8.63929028 25.866596,8.69548337 26.0202988,8.69548337 C26.1872835,8.69548337 26.3539341,8.62910372 26.4772305,8.49784736 C26.7139663,8.24568819 26.7014361,7.84933072 26.4491631,7.61270189 C26.0589751,7.24657012 25.6424739,6.90056099 25.2113542,6.58410959 C24.9324337,6.37945988 24.5403245,6.4394938 24.3355823,6.71828832 C24.1306731,6.99708284 24.1908177,7.389015 24.4696546,7.59366471 Z M20.6329317,10.6457926 C20.6329317,9.56384605 19.7523149,8.68362688 18.6698795,8.68362688 L15.9967871,8.68362688 C14.9143518,8.68362688 14.0337349,9.56384605 14.0337349,10.6457926 L14.0337349,14.0273973 L10.6506024,14.0273973 C9.56816707,14.0273973 8.6875502,14.9076164 8.6875502,15.9895629 L8.6875502,18.6614481 C8.6875502,19.7433947 9.56816707,20.6236138 10.6506024,20.6236138 L14.0337349,20.6236138 L14.0337349,24.0052185 C14.0337349,25.087165 14.9143518,25.9673842 15.9967871,25.9673842 L18.6698795,25.9673842 C19.7523149,25.9673842 20.6329317,25.087165 20.6329317,24.0052185 L20.6329317,20.6236138 L24.0160643,20.6236138 C25.0984996,20.6236138 25.9791165,19.7433947 25.9791165,18.6614481 L25.9791165,15.9895629 C25.9791165,14.9076164 25.0984996,14.0273973 24.0160643,14.0273973 L20.6329317,14.0273973 L20.6329317,10.6457926 Z M24.0160643,15.2798434 C24.4075888,15.2798434 24.7261044,15.5982153 24.7261044,15.9895629 L24.7261044,18.6614481 C24.7261044,19.0527958 24.4075888,19.3711676 24.0160643,19.3711676 L20.0064257,19.3711676 C19.6604273,19.3711676 19.3799197,19.6515486 19.3799197,19.9973907 L19.3799197,24.0052185 C19.3799197,24.3965662 19.061404,24.714938 18.6698795,24.714938 L15.9967871,24.714938 C15.6052627,24.714938 15.286747,24.3965662 15.286747,24.0052185 L15.286747,19.9973907 C15.286747,19.6515486 15.0062394,19.3711676 14.660241,19.3711676 L10.6506024,19.3711676 C10.2590779,19.3711676 9.94056225,19.0527958 9.94056225,18.6614481 L9.94056225,15.9895629 C9.94056225,15.5982153 10.2590779,15.2798434 10.6506024,15.2798434 L14.660241,15.2798434 C15.0062394,15.2798434 15.286747,14.9994625 15.286747,14.6536204 L15.286747,10.6457926 C15.286747,10.2544449 15.6052627,9.93607306 15.9967871,9.93607306 L18.6698795,9.93607306 C19.061404,9.93607306 19.3799197,10.2544449 19.3799197,10.6457926 L19.3799197,14.6536204 C19.3799197,14.9994625 19.6604273,15.2798434 20.0064257,15.2798434 L24.0160643,15.2798434 Z" id="icon_pin"></path>
                                        </g>
                                    </g>
                                </g>
                            </g>
                        </g>
                    </g>
                </g>
            </g>
        </g>
    </g>
</svg>