<?xml version="1.0" encoding="UTF-8" standalone="no"?>
<svg width="43px" height="44px" viewBox="0 0 43 44" version="1.1" xmlns="http://www.w3.org/2000/svg" xmlns:xlink="http://www.w3.org/1999/xlink">
    <!-- Generator: sketchtool 3.6.1 (26313) - http://www.bohemiancoding.com/sketch -->
    <title>4EF19C2B-E48D-4D7C-98CD-E1705CAF36A2</title>
    <desc>Created with sketchtool.</desc>
    <defs></defs>
    <g id="Welcome" stroke="none" stroke-width="1" fill="none" fill-rule="evenodd">
        <g id="lisser_landing" transform="translate(-525.000000, -1685.000000)" fill="#FFFFFF">
            <g id="2" transform="translate(0.000000, 1500.000000)">
                <g id="items">
                    <g id="Feature-2" transform="translate(475.000000, 0.000000)">
                        <g id="item1" transform="translate(31.192547, 167.000000)">
                            <g id="Oval-6-Copy-+-patch">
                                <path d="M53.5659042,39.9653281 L61.259989,32.3187377 C61.5079258,32.0723314 61.6445112,31.7447995 61.6445112,31.3963971 C61.6445112,31.0479947 61.5080104,30.7203787 61.2600737,30.4740565 L49.7638681,19.0487311 C49.5159313,18.8023248 49.1863651,18.6666667 48.8357987,18.6666667 C48.4851477,18.6666667 48.1555815,18.8023248 47.9077294,19.0487311 L40.2136446,26.6953215 L32.5194752,19.0488153 C32.2715384,18.8023248 31.9419721,18.6666667 31.5914058,18.6666667 C31.2408394,18.6666667 30.9111885,18.8023248 30.6633364,19.0487311 L19.1670462,30.4739724 C18.9191094,30.7203787 18.7826087,31.0479106 18.7826087,31.396313 C18.7826087,31.7447995 18.9191094,32.0723314 19.1670462,32.3186535 L26.8611309,39.9652439 L19.1671309,47.6119185 C18.9191094,47.8582406 18.7826087,48.1858567 18.7826087,48.534259 C18.7826087,48.8826614 18.9191094,49.2102774 19.1670462,49.4565996 L30.6632517,60.8818409 C30.9111885,61.1282472 31.2407548,61.2639053 31.5913211,61.2639053 C31.9419721,61.2639053 32.2715384,61.1282472 32.5193905,60.8818409 L40.2134752,53.2352505 L47.90756,60.8818409 C48.1554121,61.1282472 48.485063,61.2639053 48.8356294,61.2639053 C49.1861957,61.2639053 49.5158467,61.1282472 49.7636988,60.8818409 L61.2599043,49.4565996 C61.5078411,49.2101933 61.6443418,48.8826614 61.6443418,48.534259 C61.6443418,48.1857725 61.5078411,47.8582406 61.2599043,47.6119185 L53.5659042,39.9653281 Z M48.8058228,19.9412807 C48.8088712,19.9382512 48.8181857,19.9289941 48.8357141,19.9289941 C48.8532424,19.9289941 48.8626416,19.9382512 48.86569,19.9412807 L60.3618955,31.366522 C60.364944,31.3695516 60.3742585,31.3788928 60.3742585,31.396313 C60.3742585,31.4137331 60.364944,31.4229901 60.3618955,31.4261039 L52.6678108,39.0726943 L41.1116533,27.5879553 L48.8058228,19.9412807 Z M31.6212971,59.9893754 C31.6182487,59.992405 31.6089341,60.0016621 31.5914058,60.0016621 C31.5738775,60.0016621 31.5644782,59.992405 31.5614298,59.9893754 L20.0651396,48.56405 C20.0620912,48.5610204 20.0527767,48.5516792 20.0527767,48.534259 C20.0527767,48.5168389 20.0620912,48.5075819 20.0651396,48.5044681 L27.7592244,40.8578777 L39.3153818,52.3427009 L31.6212971,59.9893754 Z M47.428622,44.2796266 L41.6806039,49.9921631 C41.4325825,50.2386535 41.4325825,50.6383064 41.6806039,50.8847127 C41.8045723,51.0079158 41.9671538,51.0696016 42.1296506,51.0696016 C42.2921475,51.0696016 42.4547289,51.008 42.5786973,50.8847127 L48.3267154,45.1721762 C48.5747369,44.9256857 48.5747369,44.5260329 48.3267154,44.2796266 C48.0787786,44.0331361 47.6766435,44.0331361 47.428622,44.2796266 Z M50.3026734,41.4232321 L49.3447127,42.3752794 C49.0966912,42.6217699 49.0966912,43.0214227 49.3447127,43.2678291 C49.4686811,43.3910322 49.6312626,43.4527179 49.7937594,43.4527179 C49.9562562,43.4527179 50.1188377,43.3911164 50.2428061,43.2678291 L51.2007668,42.3157817 C51.4487883,42.0692913 51.4487883,41.6696384 51.2007668,41.4232321 C50.95283,41.1767416 50.5506948,41.1767416 50.3026734,41.4232321 Z M37.3392545,31.0756818 C37.5017513,31.0756818 37.6643328,31.0140802 37.7883012,30.8907929 L38.7466006,29.9384089 C38.9946221,29.6919185 38.9946221,29.2922656 38.7466006,29.0458593 C38.4985791,28.7993688 38.096444,28.7993688 37.8485072,29.0458593 L36.8902078,29.9982433 C36.6421863,30.2447337 36.6421863,30.6443866 36.8902078,30.8907929 C37.0141762,31.0139961 37.1767577,31.0756818 37.3392545,31.0756818 Z M35.8722952,31.9023379 C35.6242737,31.6558475 35.2221386,31.6558475 34.9742018,31.9023379 L29.2262684,37.6148744 C28.9782469,37.8613649 28.9782469,38.2610178 29.2262684,38.5074241 C29.3502368,38.6306272 29.5128183,38.692313 29.6753151,38.692313 C29.8378119,38.692313 30.0003934,38.6307114 30.1243618,38.5074241 L35.8722952,32.7948876 C36.1203167,32.5484813 36.1203167,32.1488284 35.8722952,31.9023379 Z M60.3618955,48.56405 L48.86569,59.9892913 C48.8626416,59.9923208 48.8532424,60.0015779 48.8357141,60.0015779 C48.8181857,60.0015779 48.8088712,59.9923208 48.8058228,59.9892913 L20.0651396,31.4261039 C20.0620912,31.4230743 20.0527767,31.4137331 20.0527767,31.3963971 C20.0527767,31.378977 20.0620912,31.3696358 20.0651396,31.3666062 L31.5614298,19.9412807 C31.5644782,19.9382512 31.5738775,19.9289941 31.5914058,19.9289941 C31.6089341,19.9289941 31.6182487,19.9382512 31.6213817,19.9412807 L60.3619802,48.5045523 C60.3650286,48.5075819 60.3743432,48.5168389 60.3743432,48.534259 C60.3743432,48.5516792 60.364944,48.5610204 60.3618955,48.56405 Z M38.8064679,34.6989822 C39.1822682,35.0724629 39.682037,35.2782222 40.2135599,35.2782222 C40.7450829,35.2782222 41.2448516,35.0724629 41.620652,34.6989822 C42.3965553,33.9278685 42.3965553,32.6732834 41.620652,31.9021696 C41.2448516,31.528689 40.7450829,31.3229297 40.2135599,31.3229297 C39.682037,31.3229297 39.1822682,31.528689 38.8064679,31.9021696 C38.0306493,32.6732834 38.0306493,33.9278685 38.8064679,34.6989822 Z M39.704646,32.7947193 C39.8405539,32.6596502 40.0212565,32.5851729 40.2135599,32.5851729 C40.4058634,32.5851729 40.5865659,32.6595661 40.7224739,32.7947193 C41.0030963,33.0736095 41.0030963,33.5274583 40.7224739,33.8063485 C40.5865659,33.9414175 40.4058634,34.0158948 40.2135599,34.0158948 C40.0212565,34.0158948 39.8405539,33.9415016 39.704646,33.8063485 C39.4240235,33.5274583 39.4240235,33.0736936 39.704646,32.7947193 Z M42.1595419,38.0313583 C42.5474512,38.4169573 43.0570426,38.6096726 43.566634,38.6096726 C44.0762254,38.6096726 44.5858168,38.4168731 44.973726,38.0313583 C45.7496293,37.2602446 45.7496293,36.0056594 44.973726,35.2345457 C44.1979075,34.463432 42.9353605,34.4635161 42.1595419,35.2345457 C41.3836386,36.0056594 41.3836386,37.2602446 42.1595419,38.0313583 Z M43.0576353,36.1270953 C43.1979466,35.9876502 43.3822903,35.9179698 43.5665493,35.9179698 C43.750893,35.9179698 43.9352367,35.9876502 44.0755479,36.1270953 C44.3561704,36.4059855 44.3561704,36.8598343 44.0755479,37.1387245 C43.7949255,37.4176147 43.3383425,37.4176989 43.0576353,37.1387245 C42.7770129,36.8598343 42.7770129,36.4060697 43.0576353,36.1270953 Z M45.512616,38.5669218 C45.1368156,38.9404024 44.9297782,39.4370861 44.9297782,39.9653281 C44.9297782,40.49357 45.1368156,40.9902538 45.512616,41.3637344 C45.9005253,41.7493333 46.4101167,41.9420487 46.919708,41.9420487 C47.4292994,41.9420487 47.9388908,41.7492492 48.3268001,41.3637344 C48.7026005,40.9902538 48.9096378,40.49357 48.9096378,39.9653281 C48.9096378,39.4370861 48.7026005,38.9404024 48.3268001,38.5669218 C47.5508122,37.795808 46.2884346,37.795808 45.512616,38.5669218 Z M47.428622,40.4711006 C47.1479996,40.750075 46.6913318,40.7499908 46.4107094,40.4711006 C46.2748014,40.3360316 46.1998615,40.1564444 46.1998615,39.9653281 C46.1998615,39.7742117 46.2747167,39.5946246 46.4107094,39.4595556 C46.5510206,39.3201105 46.7352797,39.25043 46.9196234,39.25043 C47.1039671,39.25043 47.2883108,39.3201946 47.428622,39.4596397 C47.56453,39.5947087 47.6394699,39.7742959 47.6394699,39.9654122 C47.6394699,40.1565286 47.5646146,40.3360316 47.428622,40.4711006 Z M38.2675779,35.2345457 C37.4917593,34.4635161 36.2292971,34.463432 35.4533938,35.2345457 C34.6774905,36.0056594 34.6774905,37.2602446 35.4533938,38.0313583 C35.8413031,38.4169573 36.3508945,38.6096726 36.8604859,38.6096726 C37.3700773,38.6096726 37.8796686,38.4168731 38.2675779,38.0313583 C39.0434812,37.2602446 39.0434812,36.0056594 38.2675779,35.2345457 Z M37.3693998,37.1387245 C37.0887774,37.4176989 36.6321097,37.4176147 36.3514872,37.1387245 C36.0708648,36.8598343 36.0708648,36.4059855 36.3514872,36.1270953 C36.4917984,35.9876502 36.6761422,35.9179698 36.8604859,35.9179698 C37.0447449,35.9179698 37.2290886,35.9876502 37.3693998,36.1270953 C37.6500223,36.4060697 37.6500223,36.8598343 37.3693998,37.1387245 Z M40.2135599,41.9429744 C40.7450829,41.9429744 41.244767,41.737215 41.620652,41.3637344 C41.9964524,40.9902538 42.2034897,40.49357 42.2034897,39.9653281 C42.2034897,39.4370861 41.9964524,38.9404024 41.620652,38.5669218 C41.2448516,38.1934412 40.7450829,37.9876818 40.2135599,37.9876818 C39.682037,37.9876818 39.1822682,38.1934412 38.8064679,38.5669218 C38.4306675,38.9404024 38.2236301,39.4370861 38.2236301,39.9653281 C38.2236301,40.49357 38.4306675,40.9902538 38.8064679,41.3637344 C39.1822682,41.737215 39.682037,41.9429744 40.2135599,41.9429744 Z M39.704646,39.4595556 C39.8405539,39.3244865 40.0212565,39.2500092 40.2135599,39.2500092 C40.4058634,39.2500092 40.5865659,39.3244024 40.7224739,39.4595556 C40.8583819,39.5946246 40.9333218,39.7742117 40.9333218,39.9653281 C40.9333218,40.1564444 40.8584665,40.3360316 40.7224739,40.4711006 C40.5865659,40.6061696 40.4058634,40.6806469 40.2135599,40.6806469 C40.0212565,40.6806469 39.8405539,40.6062538 39.704646,40.4711006 C39.568738,40.3360316 39.4937981,40.1564444 39.4937981,39.9653281 C39.4937981,39.7742117 39.5686533,39.5946246 39.704646,39.4595556 Z M43.566634,45.2744247 C44.0762254,45.2744247 44.5858168,45.0816252 44.973726,44.6961105 C45.7496293,43.9249967 45.7496293,42.6704116 44.973726,41.8992978 C44.1979075,41.1281841 42.9353605,41.1282682 42.1595419,41.8992978 C41.3836386,42.6704116 41.3836386,43.9249967 42.1595419,44.6961105 C42.5474512,45.0816252 43.0570426,45.2744247 43.566634,45.2744247 Z M43.0576353,42.7918475 C43.1979466,42.6524024 43.3822903,42.5827219 43.5665493,42.5827219 C43.750893,42.5827219 43.9352367,42.6524024 44.0755479,42.7918475 C44.3561704,43.0707377 44.3561704,43.5245865 44.0755479,43.8034767 C43.7949255,44.0823669 43.3383425,44.082451 43.0576353,43.8034767 C42.7770129,43.5245865 42.7770129,43.0708218 43.0576353,42.7918475 Z M35.4973416,39.9653281 C35.4973416,39.4370861 35.2903042,38.9404024 34.9145039,38.5669218 C34.1386006,37.7957239 32.8761383,37.795808 32.1003197,38.5669218 C31.7245194,38.9404024 31.517482,39.4370861 31.517482,39.9653281 C31.517482,40.49357 31.7245194,40.9902538 32.1003197,41.3637344 C32.488229,41.7493333 32.9978204,41.9420487 33.5074118,41.9420487 C34.0170032,41.9420487 34.5265946,41.7492492 34.9145039,41.3637344 C35.2903042,40.9902538 35.4973416,40.49357 35.4973416,39.9653281 Z M34.0163258,40.4711006 C33.7357033,40.750075 33.2790356,40.7499908 32.9984132,40.4711006 C32.8625052,40.3360316 32.7875653,40.1564444 32.7875653,39.9653281 C32.7875653,39.7742117 32.8624205,39.5946246 32.9984132,39.4595556 C33.1387244,39.3201105 33.3229834,39.25043 33.5073271,39.25043 C33.6916708,39.25043 33.8760146,39.3201946 34.0163258,39.4596397 C34.1522337,39.5947087 34.2271737,39.7742959 34.2271737,39.9654122 C34.2271737,40.1565286 34.1523184,40.3360316 34.0163258,40.4711006 Z M38.2675779,41.8992978 C37.4917593,41.1282682 36.2292971,41.1281841 35.4533938,41.8992978 C34.6774905,42.6704116 34.6774905,43.9249967 35.4533938,44.6961105 C35.8413031,45.0817094 36.3508945,45.2744247 36.8604859,45.2744247 C37.3700773,45.2744247 37.8796686,45.0816252 38.2675779,44.6961105 C39.0434812,43.9249967 39.0434812,42.6703274 38.2675779,41.8992978 Z M37.3693998,43.8034767 C37.0887774,44.082451 36.6321097,44.0823669 36.3514872,43.8034767 C36.0708648,43.5245865 36.0708648,43.0707377 36.3514872,42.7918475 C36.4917984,42.6524024 36.6761422,42.5827219 36.8604859,42.5827219 C37.0447449,42.5827219 37.2290886,42.6524024 37.3693998,42.7918475 C37.6500223,43.0708218 37.6500223,43.5245865 37.3693998,43.8034767 Z M41.620652,45.2316739 C41.2448516,44.8581933 40.7450829,44.6524339 40.2135599,44.6524339 C39.682037,44.6524339 39.1822682,44.8581933 38.8064679,45.2316739 C38.0305646,46.0027876 38.0305646,47.2573728 38.8064679,48.0284865 C39.1822682,48.4019671 39.682037,48.6077265 40.2135599,48.6077265 C40.7450829,48.6077265 41.2448516,48.4019671 41.620652,48.0284865 C42.3964706,47.2573728 42.3964706,46.0027876 41.620652,45.2316739 Z M40.7224739,47.1358527 C40.5865659,47.2709218 40.4057787,47.3453991 40.2135599,47.3453991 C40.0213412,47.3453991 39.8405539,47.2710059 39.704646,47.1358527 C39.4240235,46.8569625 39.4240235,46.4031137 39.704646,46.1242235 C39.8405539,45.9891545 40.0212565,45.9146772 40.2135599,45.9146772 C40.4058634,45.9146772 40.5865659,45.9890703 40.7224739,46.1242235 C41.0030963,46.4031979 41.0030963,46.8569625 40.7224739,47.1358527 Z" id="icon_patch"></path>
                            </g>
                        </g>
                    </g>
                </g>
            </g>
        </g>
    </g>
</svg>