<?xml version="1.0" encoding="UTF-8" standalone="no"?>
<svg width="207px" height="40px" viewBox="0 0 207 40" version="1.1" xmlns="http://www.w3.org/2000/svg" xmlns:xlink="http://www.w3.org/1999/xlink">
    <!-- Generator: sketchtool 3.6.1 (26313) - http://www.bohemiancoding.com/sketch -->
    <title>89998419-A1B8-4D6F-BBB0-BF06DE172DA4</title>
    <desc>Created with sketchtool.</desc>
    <defs></defs>
    <g id="Welcome" stroke="none" stroke-width="1" fill="none" fill-rule="evenodd">
        <g id="lisser_landing" transform="translate(-314.000000, -2580.000000)">
            <g id="6" transform="translate(0.000000, 2372.000000)">
                <g id="Heading-and-Info-Text" transform="translate(3.076923, 103.700809)">
                    <g id="Lisseteur_Logo_1" transform="translate(311.000000, 104.000000)">
                        <path d="M197.291926,14.11851 C198.200937,14.11851 199.03856,14.2732617 199.799507,14.5917746 C200.566799,14.9108175 201.264819,15.3899118 201.898324,16.0248177 C202.554039,16.6618435 203.041595,17.3677656 203.365751,18.1531834 C203.681446,18.9285318 203.844317,19.7743664 203.844317,20.6880373 C203.844317,21.5969385 203.689907,22.4395933 203.372097,23.2022223 C203.054286,23.9706811 202.57572,24.6686536 201.942215,25.3051494 C201.329861,25.9421752 200.644005,26.4196796 199.882529,26.7381925 C199.122111,27.064655 198.284488,27.2331859 197.374948,27.2533248 L185.451509,27.2533248 L185.451509,14.11851 L197.291926,14.11851 Z M183.760927,38.6959405 C183.769917,38.9704658 183.859813,39.1755648 184.028501,39.3160072 C184.191901,39.4495601 184.388616,39.5211062 184.60754,39.5211062 C184.826993,39.5211062 185.023179,39.4495601 185.192925,39.3160072 C185.353681,39.1755648 185.445692,38.9704658 185.451509,38.6959405 L185.451509,28.9508237 L194.83934,28.9508237 L205.071139,39.2025933 C205.295351,39.4235915 205.526967,39.5211062 205.754881,39.5211062 C205.986496,39.5131566 206.176865,39.4283612 206.332333,39.2736095 C206.480398,39.1252175 206.563948,38.9280681 206.570294,38.7017702 C206.578755,38.4749424 206.471408,38.2433448 206.254599,38.017047 L197.205202,28.9508237 L197.374948,28.9508237 C198.494951,28.9290949 199.538279,28.7160463 200.503872,28.3137979 C201.469465,27.9110195 202.343576,27.3185113 203.125146,26.5325635 C204.732177,24.9235699 205.535428,22.9759245 205.535428,20.6880373 C205.535428,19.5655576 205.338713,18.5178038 204.937352,17.545836 C204.534405,16.578108 203.927868,15.6856359 203.125146,14.8811391 C202.343576,14.0766423 201.469465,13.4687649 200.503872,13.0670465 C199.538279,12.6563185 198.494951,12.4464498 197.374948,12.423661 L184.60754,12.423661 C184.366935,12.4321406 184.170749,12.5158761 184.007878,12.6711577 C183.852939,12.834389 183.769917,13.0315384 183.760927,13.2721455 L183.760927,38.6959405 Z M142.329252,38.6959405 C142.335598,38.9349577 142.419677,39.1315771 142.573559,39.2948084 C142.736959,39.4495601 142.935789,39.5354155 143.17375,39.5423051 L164.313158,39.5423051 C164.589193,39.5354155 164.79384,39.4442603 164.933972,39.2736095 C165.067759,39.1109082 165.139148,38.9137588 165.139148,38.6959405 C165.139148,38.4749424 165.067759,38.2783229 164.933972,38.109262 C164.79384,37.9460308 164.589193,37.8532858 164.313158,37.847986 L144.020891,37.847986 L144.020891,26.8304076 L160.086969,26.8304076 C160.359831,26.8245779 160.565535,26.7318328 160.705139,26.561712 C160.838926,26.3984807 160.909785,26.2018613 160.909785,25.984043 C160.909785,25.7641048 160.838926,25.5674854 160.705139,25.3978945 C160.565535,25.2336033 160.359831,25.1419182 160.086969,25.1355585 L144.020891,25.1355585 L144.020891,14.11851 L164.313158,14.11851 C164.589193,14.1116204 164.79384,14.0199353 164.933972,13.8503444 C165.067759,13.6871132 165.139148,13.4899638 165.139148,13.2721455 C165.139148,13.0543272 165.067759,12.8550579 164.933972,12.685467 C164.79384,12.5217058 164.589193,12.4321406 164.313158,12.423661 L143.17375,12.423661 C142.935789,12.4321406 142.736959,12.5158761 142.573559,12.6711577 C142.419677,12.834389 142.335598,13.0315384 142.329252,13.2721455 L142.329252,38.6959405 Z M111.422333,37.847986 C109.921591,37.847986 108.442002,37.7064836 106.977219,37.4303685 C105.517195,37.1473637 104.067219,36.7239164 102.628876,36.1526071 C102.35337,36.0476727 102.129687,36.0312436 101.96047,36.117099 C101.784907,36.2024244 101.656937,36.3847346 101.5718,36.6597898 C101.488249,36.936435 101.496181,37.1712124 101.600884,37.3593523 C101.699241,37.5522619 101.888553,37.6985341 102.163001,37.8029385 C103.496641,38.3768977 104.93234,38.8082945 106.474857,39.1040186 C108.020018,39.395503 109.669353,39.5423051 111.422333,39.5423051 L112.691988,39.5423051 C114.361946,39.5423051 115.862687,39.3785439 117.209019,39.0626808 C118.546889,38.7441679 119.731406,38.2730232 120.766273,37.6359974 C121.803255,36.9777728 122.584825,36.2162037 123.105166,35.3332711 C123.634498,34.4577581 123.895726,33.4624715 123.895726,32.3399918 C123.88938,31.1374863 123.628152,30.0945023 123.098821,29.1983204 C122.578479,28.293129 121.823878,27.5426893 120.844536,26.9438215 C119.863078,26.3444236 118.688608,25.8918279 117.313721,25.5881542 C115.939893,25.2844806 114.397376,25.1355585 112.691988,25.1355585 C109.520759,25.1355585 107.145907,24.6766032 105.5595,23.767702 C103.975207,22.8482013 103.178831,21.4718652 103.178831,19.6280942 C103.178831,17.7848532 103.975207,16.4058672 105.5595,15.4884865 C107.145907,14.5790553 109.520759,14.11851 112.691988,14.11851 C114.192729,14.11851 115.665973,14.2525928 117.108546,14.528708 C118.553234,14.8053531 119.985232,15.2208508 121.399778,15.7714913 C121.661007,15.8488671 121.893151,15.8425075 122.097798,15.7439328 C122.302444,15.6517177 122.451566,15.5033257 122.543578,15.3045863 C122.710151,14.7555358 122.499159,14.3739563 121.907429,14.1603778 C120.575904,13.5901284 119.137561,13.1587316 117.601919,12.8614175 C116.058873,12.572583 114.424345,12.423661 112.691988,12.423661 C111.020972,12.423661 109.512827,12.5874222 108.159621,12.9038152 C106.807474,13.2302777 105.610265,13.7162616 104.572754,14.3739563 C103.538417,15.0088622 102.762663,15.7646017 102.255013,16.632695 C101.740488,17.5076781 101.488249,18.5050845 101.488249,19.6280942 C101.496181,20.8284798 101.755295,21.8741136 102.284097,22.7708255 C102.804967,23.6754869 103.559569,24.4232768 104.53944,25.0247945 C105.517195,25.6236623 106.694839,26.076258 108.068139,26.3778119 C109.443554,26.6836054 110.986071,26.8304076 112.691988,26.8304076 C115.862687,26.8304076 118.243356,27.2909528 119.830292,28.200384 C121.414585,29.1177648 122.204616,30.4967507 122.204616,32.3399918 C122.204616,34.1832328 121.414585,35.5595689 119.830292,36.4769497 C118.243356,37.3885007 115.862687,37.847986 112.691988,37.847986 L111.422333,37.847986 Z M71.2581972,37.847986 C69.7574557,37.847986 68.2773375,37.7064836 66.8120258,37.4303685 C65.3530597,37.1473637 63.9004393,36.7239164 62.4626253,36.1526071 C62.1881768,36.0476727 61.9650222,36.0312436 61.7936902,36.117099 C61.6181277,36.2024244 61.4922727,36.3847346 61.4066067,36.6597898 C61.3214695,36.936435 61.3294016,37.1712124 61.4341045,37.3593523 C61.5340481,37.5522619 61.724417,37.6985341 61.9983367,37.8029385 C63.3319766,38.3768977 64.7682042,38.8082945 66.3128363,39.1040186 C67.8553531,39.395503 69.5020441,39.5423051 71.2581972,39.5423051 L72.5273232,39.5423051 C74.1972814,39.5423051 75.6980229,39.3785439 77.044354,39.0626808 C78.3816955,38.7441679 79.5651555,38.2730232 80.6016084,37.6359974 C81.6385901,36.9777728 82.420689,36.2162037 82.9405018,35.3332711 C83.4693043,34.4577581 83.7289463,33.4624715 83.7289463,32.3399918 C83.7247159,31.1374863 83.4613723,30.0945023 82.934685,29.1983204 C82.4122281,28.293129 81.6597422,27.5426893 80.6793424,26.9438215 C79.6989426,26.3444236 78.5239434,25.8918279 77.1485281,25.5881542 C75.7752281,25.2844806 74.230596,25.1355585 72.5273232,25.1355585 C69.3560946,25.1355585 66.9817714,24.6766032 65.3969503,23.767702 C63.8105429,22.8482013 63.0141663,21.4718652 63.0141663,19.6280942 C63.0141663,17.7848532 63.8105429,16.4058672 65.3969503,15.4884865 C66.9817714,14.5790553 69.3560946,14.11851 72.5273232,14.11851 C74.0259494,14.11851 75.5018372,14.2525928 76.9438816,14.528708 C78.3901564,14.8053531 79.8200383,15.2208508 81.237229,15.7714913 C81.4963422,15.8488671 81.7284865,15.8425075 81.9336619,15.7439328 C82.1383084,15.6517177 82.2863731,15.5033257 82.3783848,15.3045863 C82.5454864,14.7555358 82.3344942,14.3739563 81.7427642,14.1603778 C80.4117683,13.5901284 78.9734255,13.1587316 77.4372543,12.8614175 C75.8947374,12.572583 74.2596801,12.423661 72.5273232,12.423661 C70.8568361,12.423661 69.3476338,12.5874222 67.9954858,12.9038152 C66.642809,13.2302777 65.4450714,13.7162616 64.4080897,14.3739563 C63.373752,15.0088622 62.5979988,15.7646017 62.0903484,16.632695 C61.5763523,17.5076781 61.3214695,18.5050845 61.3214695,19.6280942 C61.3294016,20.8284798 61.5885148,21.8741136 62.1194325,22.7708255 C62.6397742,23.6754869 63.3949041,24.4232768 64.3726599,25.0247945 C65.3530597,25.6236623 66.5301741,26.076258 67.9034742,26.3778119 C69.2767742,26.6836054 70.8214063,26.8304076 72.5273232,26.8304076 C75.6980229,26.8304076 78.0792205,27.2909528 79.665628,28.200384 C81.2499203,29.1177648 82.0399512,30.4967507 82.0399512,32.3399918 C82.0399512,34.1832328 81.2499203,35.5595689 79.665628,36.4769497 C78.0792205,37.3885007 75.6980229,37.847986 72.5273232,37.847986 L71.2581972,37.847986 Z M40.8594571,38.6959405 C40.8658027,38.9704658 40.9578144,39.1755648 41.1270312,39.3160072 C41.2877871,39.4495601 41.4860881,39.5211062 41.7060699,39.5211062 C41.9234077,39.5211062 42.1201222,39.4495601 42.2914542,39.3160072 C42.4522102,39.1755648 42.5442218,38.9704658 42.5505675,38.6959405 L42.5505675,13.2721455 C42.5442218,12.9955003 42.4522102,12.7904013 42.2914542,12.6499589 C42.1201222,12.5158761 41.9234077,12.4464498 41.7060699,12.4464498 C41.4860881,12.4464498 41.2877871,12.5158761 41.1270312,12.6499589 C40.9578144,12.7904013 40.8658027,12.9955003 40.8594571,13.2721455 L40.8594571,38.6959405 Z M1.96127457,13.2721455 C1.95704415,12.9955003 1.86556132,12.7904013 1.70216135,12.6499589 C1.53294455,12.5158761 1.33675883,12.4464498 1.11730579,12.4464498 C0.899439168,12.4464498 0.701138233,12.5158761 0.539853473,12.6499589 C0.368521465,12.7904013 0.279153844,12.9955003 0.272279412,13.2721455 L0.272279412,38.6959405 C0.279153844,38.9349577 0.364819848,39.1315771 0.519230176,39.2948084 C0.679986133,39.4495601 0.87881587,39.5354155 1.11730579,39.5423051 L22.2561854,39.5423051 C22.5295763,39.5354155 22.7347517,39.4442603 22.8764707,39.2736095 C23.0102578,39.1109082 23.0816461,38.9137588 23.0816461,38.6959405 C23.0816461,38.4749424 23.0102578,38.2783229 22.8764707,38.109262 C22.7347517,37.9460308 22.5295763,37.8532858 22.2561854,37.847986 L1.96127457,37.847986 L1.96127457,13.2721455 Z" id="Fill-1" fill="#fff"></path>
                        <path d="M193.3127,5.94345763 C193.044818,6.10955932 192.904112,6.30142373 192.879082,6.51498305 C192.860818,6.72922034 192.970406,6.97057627 193.215965,7.23972881 C193.467612,7.48583051 193.719259,7.63294915 193.964818,7.67227119 C194.208347,7.71769492 194.449171,7.64854237 194.692024,7.47159322 L202.637171,1.99227119 C202.907082,1.82616949 203.048465,1.63498305 203.072818,1.42277966 C203.088376,1.20718644 202.978788,0.965830508 202.735935,0.698033898 C202.484965,0.449898305 202.240759,0.305491525 201.9952,0.266169492 C201.751671,0.220745763 201.502729,0.287864407 201.259876,0.464813559 L193.3127,5.94345763 Z" id="Fill-3" fill="#C73A79"></path>
                    </g>
                </g>
            </g>
        </g>
    </g>
</svg>