<?xml version="1.0" encoding="UTF-8" standalone="no"?>
<svg width="17px" height="16px" viewBox="0 0 17 16" version="1.1" xmlns="http://www.w3.org/2000/svg" xmlns:xlink="http://www.w3.org/1999/xlink">
    <!-- Generator: sketchtool 3.6.1 (26313) - http://www.bohemiancoding.com/sketch -->
    <title>A39F8FAE-A7AD-4864-8FFC-4163A7023F83</title>
    <desc>Created with sketchtool.</desc>
    <defs></defs>
    <g id="Welcome" stroke="none" stroke-width="1" fill="none" fill-rule="evenodd">
        <g id="lisser_web_login_step_3_v2" transform="translate(-87.000000, -716.000000)" fill="#3E3E3E">
            <g id="Group-3">
                <g id="Group" transform="translate(85.000000, 154.000000)">
                    <g id="Group-5" transform="translate(1.000000, 561.000000)">
                        <path d="M14.8137085,3.3137085 C14.6637085,3.3137085 14.5637085,3.3637085 14.4637085,3.4637085 L4.3137085,13.6137085 L4.3137085,4.8137085 C4.3137085,4.5137085 4.1137085,4.3137085 3.8137085,4.3137085 C3.5137085,4.3137085 3.3137085,4.5137085 3.3137085,4.8137085 L3.3137085,14.8137085 C3.3137085,15.1137085 3.5137085,15.3137085 3.8137085,15.3137085 L13.8137085,15.3137085 C14.1137085,15.3137085 14.3137085,15.1137085 14.3137085,14.8137085 C14.3137085,14.5137085 14.1137085,14.3137085 13.8137085,14.3137085 L5.0137085,14.3137085 L15.1637085,4.1637085 C15.2637085,4.0637085 15.3137085,3.9637085 15.3137085,3.8137085 C15.3137085,3.5137085 15.1137085,3.3137085 14.8137085,3.3137085 L14.8137085,3.3137085 Z" id="arrow_left" transform="translate(9.313708, 9.313708) rotate(-315.000000) translate(-9.313708, -9.313708) "></path>
                    </g>
                </g>
            </g>
        </g>
    </g>
</svg>