<?xml version="1.0" encoding="UTF-8" standalone="no"?>
<svg width="18px" height="18px" viewBox="0 0 18 18" version="1.1" xmlns="http://www.w3.org/2000/svg" xmlns:xlink="http://www.w3.org/1999/xlink">
    <!-- Generator: sketchtool 3.6.1 (26313) - http://www.bohemiancoding.com/sketch -->
    <title>D0F6AD2B-A006-41AB-A1C2-0E6EBED11AA0</title>
    <desc>Created with sketchtool.</desc>
    <defs></defs>
    <g id="Welcome" stroke="none" stroke-width="1" fill="none" fill-rule="evenodd">
        <g id="lisser_web_login_step_4_v2" transform="translate(-82.000000, -620.000000)" fill="#000000">
            <g id="Group" transform="translate(82.000000, 252.000000)">
                <g id="checkbox_empty" transform="translate(0.000000, 368.000000)">
                    <path d="M16.7857143,4.78571429 C16.5714286,4.78571429 16.4285714,4.92857143 16.4285714,5.14285714 L16.4285714,15.8571429 C16.4285714,16.6428571 15.7857143,17.2857143 15,17.2857143 L2.14285714,17.2857143 C1.35714286,17.2857143 0.714285714,16.6428571 0.714285714,15.8571429 L0.714285714,3 C0.714285714,2.21428571 1.35714286,1.57142857 2.14285714,1.57142857 L14.2857143,1.57142857 C14.5,1.57142857 14.6428571,1.42857143 14.6428571,1.21428571 C14.6428571,1 14.5,0.857142857 14.2857143,0.857142857 L2.14285714,0.857142857 C0.964285714,0.857142857 0,1.82142857 0,3 L0,15.8571429 C0,17.0357143 0.964285714,18 2.14285714,18 L15,18 C16.1785714,18 17.1428571,17.0357143 17.1428571,15.8571429 L17.1428571,5.14285714 C17.1428571,4.92857143 17,4.78571429 16.7857143,4.78571429 L16.7857143,4.78571429 Z" id="Shape"></path>
                </g>
            </g>
        </g>
    </g>
</svg>