<?xml version="1.0" encoding="UTF-8" standalone="no"?>
<svg width="26px" height="27px" viewBox="0 0 26 27" version="1.1" xmlns="http://www.w3.org/2000/svg" xmlns:xlink="http://www.w3.org/1999/xlink">
    <!-- Generator: sketchtool 3.6.1 (26313) - http://www.bohemiancoding.com/sketch -->
    <title>0A4F11D1-5C85-4460-9A28-3FC7B3C2A95A</title>
    <desc>Created with sketchtool.</desc>
    <defs></defs>
    <g id="Welcome" stroke="none" stroke-width="1" fill="none" fill-rule="evenodd">
        <g id="lisser_web_login_step_2_v2" transform="translate(-104.000000, -351.000000)" fill="#FFFFFF">
            <g id="Group-3">
                <g id="Group" transform="translate(85.000000, 244.000000)">
                    <g id="Sign-in" transform="translate(0.000000, 88.000000)">
                        <g id="fb">
                            <path d="M45,44.65 C45,45.4672973 44.6027778,46 43.8011111,46 L37.0555556,46 L37.0555556,35.7837838 L40.4861111,35.7837838 L41.0061111,31.4054054 L37.0555556,31.4054054 L37.0555556,29.1286486 C37.0555556,27.9610811 37.3661111,27.027027 39.0272222,27.027027 L41.3888889,27.027027 L41.3888889,23.5462162 C40.6666667,23.4951351 39.5472222,23.3856757 38.0811111,23.3856757 C35.0333333,23.3856757 32.7222222,25.2683784 32.7222222,28.7272973 L32.7222222,31.4054054 L29.1111111,31.4054054 L29.1111111,35.7837838 L32.7222222,35.7837838 L32.7222222,46 L20.2133333,46 C19.4044444,46 19,45.4672973 19,44.65 L19,20.817027 C19,19.9997297 19.4044444,19 20.2133333,19 L43.8011111,19 C44.6027778,19 45,19.9997297 45,20.817027 L45,44.65 L45,44.65 Z" id="icon_fb"></path>
                        </g>
                    </g>
                </g>
            </g>
        </g>
    </g>
</svg>