<?xml version="1.0" encoding="UTF-8" standalone="no"?>
<svg width="200px" height="200px" viewBox="0 0 200 200" version="1.1" xmlns="http://www.w3.org/2000/svg" xmlns:xlink="http://www.w3.org/1999/xlink">
    <!-- Generator: sketchtool 3.6.1 (26313) - http://www.bohemiancoding.com/sketch -->
    <title>9E9394B5-69F5-4B23-AD38-0DE5E111E127</title>
    <desc>Created with sketchtool.</desc>
    <defs></defs>
    <g id="Welcome" stroke="none" stroke-width="1" fill="none" fill-rule="evenodd">
        <g id="lisser_web_login_step_4_v2" transform="translate(-185.000000, -252.000000)">
            <g id="Group" transform="translate(82.000000, 252.000000)">
                <g id="Group-4" transform="translate(103.000000, 0.000000)">
                    <g id="placeholder">
                        <circle id="Oval-38" stroke="#E1E1E1" stroke-width="2" stroke-linecap="round" stroke-linejoin="round" stroke-dasharray="15,15" cx="100" cy="100" r="100"></circle>
                        <path d="M109.5,89.1 C107.8,88.4 106.8,87.4 106.5,86.2 C106,84.1 107.9,81.7 107.8,81.7 C107.9,81.6 111.1,78.3 111.1,71 C111.1,65.4 110,58 100.1,58 C90.2,58 89.1,65.4 89.1,71 C89.1,78.3 92.3,81.6 92.3,81.6 C92.3,81.6 94.2,84 93.7,86.1 C93.4,87.3 92.4,88.3 90.7,89 C79.2,92.5 72,96.7 72,99.9 L72,103.9 C72,105.2 73,105.9 74,105.9 L126,105.9 C127,105.9 128,105.2 128,103.9 L128,99.9 C128.2,96.8 121.1,92.6 109.5,89.1 L109.5,89.1 Z M126.2,104 L74.2,104 L74.2,100 C74.2,99.2 77.1,95.4 91.5,91 L91.6,91 C93.9,90 95.4,88.6 95.8,86.7 C96.6,83.6 94.1,80.6 93.9,80.4 C93.9,80.4 91.2,77.5 91.2,71.1 C91.2,63.3 93.8,60.1 100.2,60.1 C106.6,60.1 109.2,63.3 109.2,71.1 C109.2,77.5 106.5,80.4 106.4,80.5 C106.3,80.6 103.8,83.6 104.6,86.8 C105,88.6 106.5,90.1 108.8,91.1 L108.9,91.1 C123.3,95.5 126.2,99.4 126.2,100.1 L126.2,104 L126.2,104 Z" id="user" fill="#E1E1E1"></path>
                    </g>
                </g>
            </g>
        </g>
    </g>
</svg>